Coordinates
version=1
nRows=30
nColumns=30
inDegrees=yes

Units are S.I. units (second, meters, Newtons, ...)
Angles are in degrees.

endheader
time	floatyaw	floatroll	floatpitch	floatx	floaty	floatz	pro_sup_l	deviation_l	flexion_l	cmc_flexion_l	cmc_abduction_l	mp_flexion_l	ip_flexion_l	2mcp_flexion_l	2mcp_abduction_l	2pm_flexion_l	2md_flexion_l	3mcp_flexion_l	3mcp_abduction_l	3pm_flexion_l	3md_flexion_l	4mcp_flexion_l	4mcp_abduction_l	4pm_flexion_l	4md_flexion_l	5mcp_flexion_l	5mcp_abduction_l	5pm_flexion_l	5md_flexion_l
-0.495000	-160.147433	-5.066637	-73.570646	0.080817	-0.179723	-0.015674	101.800110	3.091127	1.807342	15.409440	7.794981	-25.318429	-41.272086	28.929038	5.886713	41.287663	27.842772	22.031041	3.819778	42.934130	28.495444	10.093328	-4.215096	51.688310	35.035372	-3.239272	-6.576891	62.299126	40.975203
-0.485000	-160.147433	-5.066637	-73.570646	0.080627	-0.179533	-0.015844	101.759930	3.123637	1.809929	15.365211	7.847828	-25.297520	-41.178832	28.963235	5.893764	41.256574	27.844656	22.102064	3.822620	42.883367	28.474367	10.195961	-4.214666	51.626694	35.030025	-3.135399	-6.590246	62.245625	40.973765
-0.475000	-160.147433	-5.066637	-73.570646	0.080404	-0.179303	-0.016046	101.738000	3.152130	1.818087	15.319990	7.909549	-25.264943	-41.069178	28.995724	5.902304	41.233611	27.840075	22.168755	3.824036	42.815127	28.438642	10.314244	-4.217266	51.540719	35.015301	-3.029261	-6.605328	62.187169	40.971859
-0.465000	-160.147433	-5.066637	-73.570646	0.080152	-0.179042	-0.016275	101.726275	3.177607	1.837631	15.277313	7.961170	-25.232556	-40.972110	29.022309	5.910925	41.222750	27.830035	22.220261	3.824169	42.741922	28.394780	10.425725	-4.223378	51.446091	34.998481	-2.942808	-6.620798	62.138274	40.974963
-0.455000	-160.147433	-5.066637	-73.570646	0.079880	-0.178763	-0.016518	101.716157	3.204185	1.872532	15.243493	7.980558	-25.219534	-40.926355	29.034935	5.917616	41.219490	27.815783	22.245584	3.823036	42.675411	28.351489	10.504742	-4.232578	51.361470	34.989129	-2.895263	-6.634237	62.103982	40.985171
-0.445000	-160.147433	-5.066637	-73.570646	0.079599	-0.178472	-0.016766	101.707092	3.239582	1.925146	15.223994	7.951823	-25.246477	-40.968319	29.022445	5.920370	41.216571	27.800164	22.234593	3.820483	42.626137	28.318755	10.529200	-4.243346	51.304018	34.995749	-2.896237	-6.641824	62.076472	40.998626
-0.435000	-160.147433	-5.066637	-73.570646	0.079314	-0.178167	-0.017019	101.711153	3.292263	1.997981	15.218452	7.877528	-25.325519	-41.115188	28.971627	5.918152	41.212202	27.788921	22.178404	3.816272	42.604556	28.306737	10.486004	-4.253506	51.285134	35.022313	-2.942246	-6.639270	62.039214	41.006102
-0.425000	-160.147433	-5.066637	-73.570646	0.079026	-0.177836	-0.017285	101.750819	3.365983	2.095780	15.218196	7.787572	-25.450043	-41.350023	28.870310	5.911552	41.214390	27.790270	22.070870	3.810156	42.619891	28.323548	10.375480	-4.261124	51.305834	35.065521	-3.017100	-6.624140	61.976820	40.996654
-0.415000	-160.147433	-5.066637	-73.570646	0.078726	-0.177457	-0.017582	101.850854	3.455017	2.225986	15.209377	7.735561	-25.590793	-41.618944	28.713488	5.902490	41.237610	27.811919	21.912364	3.801905	42.675472	28.371771	10.214894	-4.265210	51.352423	35.113514	-3.095394	-6.598472	61.885110	40.962329
-0.405000	-160.147433	-5.066637	-73.570646	0.078397	-0.177010	-0.017938	102.028053	3.543950	2.396157	15.180844	7.778108	-25.703687	-41.846900	28.510218	5.893036	41.293813	27.856745	21.714601	3.791276	42.763239	28.445148	10.039304	-4.265800	51.395571	35.147279	-3.148170	-6.569721	61.775119	40.901215
-0.395000	-160.147433	-5.066637	-73.570646	0.078012	-0.176476	-0.018386	102.283467	3.613785	2.608595	15.131566	7.944483	-25.747594	-41.967551	28.286658	5.884093	41.384191	27.919887	21.503357	3.777998	42.862002	28.527743	9.897220	-4.263694	51.396387	35.145668	-3.149445	-6.548448	61.667611	40.816916
-0.385000	-160.147433	-5.066637	-73.570646	0.077536	-0.175841	-0.018968	102.600556	3.652573	2.854632	15.072107	8.214545	-25.703201	-41.952479	28.081384	5.874934	41.497599	27.989558	21.315930	3.761859	42.942456	28.597216	9.840070	-4.260326	51.319905	35.093063	-3.081760	-6.543277	61.580293	40.714724
-0.375000	-160.147433	-5.066637	-73.570646	0.076929	-0.175091	-0.019733	102.950009	3.665570	3.112234	15.019039	8.521168	-25.583028	-41.824268	27.933010	5.864196	41.616665	28.051660	21.192061	3.743161	42.978744	28.632372	9.907262	-4.257685	51.151750	34.986791	-2.938916	-6.556231	61.515391	40.597537
-0.365000	-160.147433	-5.066637	-73.570646	0.076150	-0.174220	-0.020724	103.298539	3.679250	3.349376	14.986270	8.778952	-25.427456	-41.646625	27.865174	5.852140	41.727673	28.096200	21.160632	3.723656	42.962999	28.623227	10.111517	-4.257841	50.911225	34.841399	-2.725162	-6.582241	61.457017	40.465817
-0.355000	-160.147433	-5.066637	-73.570646	0.075168	-0.173225	-0.021977	103.616610	3.736066	3.532194	14.978357	8.924517	-25.288246	-41.495593	27.877080	5.842978	41.828594	28.122745	21.228840	3.707676	42.915795	28.579383	10.431379	-4.262044	50.654353	34.688239	-2.451367	-6.614104	61.382962	40.323587
-0.345000	-160.147433	-5.066637	-73.570646	0.073961	-0.172104	-0.023502	103.880939	3.881767	3.633702	14.988025	8.946940	-25.206448	-41.423765	27.946124	5.845557	41.931266	28.142589	21.382116	3.702462	42.884183	28.531238	10.817879	-4.270020	50.462196	34.569889	-2.128847	-6.649841	61.285679	40.187255
-0.335000	-160.147433	-5.066637	-73.570646	0.072519	-0.170853	-0.025295	104.071581	4.151656	3.638547	14.996882	8.892861	-25.194971	-41.433494	28.042543	5.871128	42.056841	28.176394	21.598019	3.716516	42.923738	28.520888	11.217839	-4.279968	50.413620	34.529603	-1.760982	-6.697017	61.188542	40.089646
-0.325000	-160.147433	-5.066637	-73.570646	0.070826	-0.169452	-0.027337	104.167499	4.563061	3.542093	14.977682	8.844139	-25.235306	-41.473842	28.148046	5.928416	42.226440	28.247581	21.867016	3.755699	43.071154	28.585357	11.606690	-4.289012	50.548898	34.597450	-1.333891	-6.770195	61.143158	40.072453
-0.315000	-160.147433	-5.066637	-73.570646	0.068853	-0.167858	-0.029618	104.145346	5.117226	3.345905	14.898362	8.878668	-25.290899	-41.466129	28.266595	6.018095	42.450621	28.373424	22.205278	3.818643	43.322276	28.740032	12.013733	-4.293471	50.839435	34.777476	-0.811448	-6.882323	61.203854	40.167486
-0.305000	-160.147433	-5.066637	-73.570646	0.066549	-0.166006	-0.032139	103.983410	5.807413	3.053654	14.729685	9.032053	-25.329104	-41.346635	28.419309	6.129951	42.721917	28.557215	22.647799	3.894472	43.629484	28.970889	12.521155	-4.288827	51.182743	35.042342	-0.142183	-7.035106	61.391131	40.376171
-0.295000	-160.147433	-5.066637	-73.570646	0.063848	-0.163829	-0.034916	103.668982	6.626289	2.670218	14.456715	9.277822	-25.337835	-41.102755	28.625500	6.245329	43.014023	28.785046	23.224010	3.965396	43.921251	29.239616	13.230716	-4.270213	51.433093	35.340489	0.720001	-7.214749	61.666348	40.660391
-0.285000	-160.147433	-5.066637	-73.570646	0.060686	-0.161278	-0.037963	103.205300	7.567766	2.203616	14.089880	9.536842	-25.327583	-40.781678	28.881984	6.344335	43.288422	29.028711	23.931905	4.014064	44.132590	29.498722	14.213329	-4.234128	51.457578	35.614506	1.790795	-7.396821	61.936602	40.952247
-0.275000	-160.147433	-5.066637	-73.570646	0.057017	-0.158352	-0.041276	102.614088	8.623571	1.667108	13.668110	9.714180	-25.320548	-40.467641	29.155761	6.413901	43.505393	29.253106	24.728775	4.031910	44.229091	29.708674	15.470788	-4.180897	51.189016	35.821991	3.041345	-7.558326	62.091884	41.179533
-0.265000	-160.147433	-5.066637	-73.570646	0.052825	-0.155093	-0.044827	101.930912	9.778187	1.078778	13.249060	9.748662	-25.335584	-40.241865	29.397090	6.452400	43.634971	29.425300	25.545051	4.023182	44.213900	29.849312	16.932436	-4.116358	50.647990	35.948480	4.403834	-7.689945	62.055951	41.294966
-0.255000	-160.147433	-5.066637	-73.570646	0.048116	-0.151584	-0.048566	101.193800	11.005690	0.457988	12.889830	9.653581	-25.375918	-40.146306	29.565251	6.469088	43.665620	29.523871	26.311375	4.001726	44.119877	29.922515	18.486185	-4.051329	49.926502	36.008031	5.793098	-7.800837	61.822397	41.295461
-0.245000	-160.147433	-5.066637	-73.570646	0.042911	-0.147925	-0.052442	100.430728	12.270281	-0.178908	12.629144	9.529755	-25.422296	-40.167670	29.648550	6.479394	43.610886	29.548298	26.979901	3.982520	43.997016	29.948666	20.021106	-3.998346	49.148386	36.034949	7.132262	-7.913323	61.456473	41.223123
-0.235000	-160.147433	-5.066637	-73.570646	0.037234	-0.144220	-0.056413	99.654808	13.530549	-0.819522	12.481226	9.542794	-25.433740	-40.247786	29.662337	6.498185	43.513582	29.526695	27.525428	3.973424	43.903462	29.961460	21.454814	-3.966787	48.430780	36.073443	8.370215	-8.050743	61.064909	41.148521
-0.225000	-160.147433	-5.066637	-73.570646	0.031118	-0.140571	-0.060452	98.872208	14.745856	-1.450660	12.442559	9.870300	-25.358613	-40.314472	29.623538	6.533339	43.444014	29.517001	27.927885	3.972146	43.900735	30.003029	22.735100	-3.959113	47.863181	36.168950	9.484583	-8.224416	60.753556	41.144412
-0.215000	-160.147433	-5.066637	-73.570646	0.024613	-0.137079	-0.064541	98.098407	15.882393	-2.050209	12.504018	10.636638	-25.154328	-40.316527	29.517869	6.581765	43.487287	29.596116	28.153751	3.969616	44.047069	30.117432	23.827113	-3.970978	47.503952	36.360000	10.472735	-8.425081	60.593881	41.260827
-0.205000	-160.147433	-5.066637	-73.570646	0.017788	-0.133849	-0.068661	97.370945	16.916771	-2.581932	12.659881	11.859295	-24.806601	-40.243230	29.283999	6.629004	43.718665	29.836110	28.157049	3.956899	44.383230	30.340109	24.706148	-3.995375	47.382549	36.668285	11.340584	-8.622555	60.607266	41.509681
